# xmcd
#
# Track frame offsets:
#	150
#	18745
#	41387
#	59972
#	81697
#	101057
#	125887
#	145240
#	173687
#	194810
#	217132
#	268622
#
# Disc length: 3820 seconds
#
# Revision: 0
# Processed by: cddbd v1.5.2PL0 Copyright (c) Steve Scherf et al.
# Submitted via: audiograbber 1.83.01
#
DISCID=ca0eea0c
DTITLE=Sheryl Crow - The Globe Sessions [CD-R]
DYEAR=1998
DGENRE=Rock
TTITLE0=My Favorite Mistake
TTITLE1=There Goes The Neighborhood
TTITLE2=Riverwide
TTITLE3=It Don't Hurt
TTITLE4=Maybe That's Something
TTITLE5=Am I Getting Through (Part I and II)
TTITLE6=Anything But Down
TTITLE7=The Difficult Kind
TTITLE8=Mississippi
TTITLE9=Members Only
TTITLE10=Crash And Burn
TTITLE11=Resuscitation
EXTD=
EXTT0=
EXTT1=
EXTT2=
EXTT3=
EXTT4=
EXTT5=
EXTT6=
EXTT7=
EXTT8=
EXTT9=
EXTT10=
EXTT11=
PLAYORDER=
